<svg xmlns="http://www.w3.org/2000/svg" viewBox="0 0 920 400" role="img" aria-label="MuzloProm AI Clips architecture">
  <defs>
    <marker id="arrow" markerWidth="10" markerHeight="7" refX="9" refY="3.5" orient="auto">
      <polygon points="0 0, 10 3.5, 0 7" fill="#57606a"/>
    </marker>
  </defs>
  <rect width="920" height="400" fill="#f6f8fa"/>
  <text x="460" y="34" text-anchor="middle" font-family="Arial,sans-serif" font-size="20" font-weight="bold" fill="#24292f">MuzloProm AI Clips</text>
  <text x="460" y="56" text-anchor="middle" font-family="Arial,sans-serif" font-size="12" fill="#57606a">Automated music clips from photos for social content</text>

  <text x="60" y="92" font-family="Arial,sans-serif" font-size="11" font-weight="bold" fill="#57606a">VIDEO PIPELINE</text>
  <rect x="20" y="100" width="100" height="54" rx="8" fill="#0088cc"/>
  <text x="70" y="120" text-anchor="middle" font-family="Arial,sans-serif" font-size="11" fill="#fff">Photo</text>
  <text x="70" y="136" text-anchor="middle" font-family="Arial,sans-serif" font-size="10" fill="#ddf4ff">+ MP3 clip</text>
  <line x1="120" y1="127" x2="140" y2="127" stroke="#57606a" stroke-width="2" marker-end="url(#arrow)"/>
  <rect x="145" y="100" width="120" height="54" rx="8" fill="#8250df"/>
  <text x="205" y="120" text-anchor="middle" font-family="Arial,sans-serif" font-size="11" fill="#fff">OpenAI</text>
  <text x="205" y="136" text-anchor="middle" font-family="Arial,sans-serif" font-size="10" fill="#fbefff">scene script</text>
  <line x1="265" y1="127" x2="285" y2="127" stroke="#57606a" stroke-width="2" marker-end="url(#arrow)"/>
  <rect x="290" y="100" width="120" height="54" rx="8" fill="#bf8700"/>
  <text x="350" y="120" text-anchor="middle" font-family="Arial,sans-serif" font-size="11" fill="#fff">Qwen WAN</text>
  <text x="350" y="136" text-anchor="middle" font-family="Arial,sans-serif" font-size="10" fill="#fff8c5">video render</text>
  <line x1="410" y1="127" x2="430" y2="127" stroke="#57606a" stroke-width="2" marker-end="url(#arrow)"/>
  <rect x="435" y="100" width="110" height="54" rx="8" fill="#1a7f37"/>
  <text x="490" y="120" text-anchor="middle" font-family="Arial,sans-serif" font-size="11" fill="#fff">Subtitles</text>
  <text x="490" y="136" text-anchor="middle" font-family="Arial,sans-serif" font-size="10" fill="#dafbe1">auto captions</text>
  <line x1="545" y1="127" x2="565" y2="127" stroke="#57606a" stroke-width="2" marker-end="url(#arrow)"/>
  <rect x="570" y="100" width="110" height="54" rx="8" fill="#0969da"/>
  <text x="625" y="120" text-anchor="middle" font-family="Arial,sans-serif" font-size="11" fill="#fff">Telegram</text>
  <text x="625" y="136" text-anchor="middle" font-family="Arial,sans-serif" font-size="10" fill="#ddf4ff">delivery</text>
  <line x1="680" y1="127" x2="700" y2="127" stroke="#57606a" stroke-width="2" marker-end="url(#arrow)"/>
  <rect x="705" y="100" width="100" height="54" rx="8" fill="#656d76"/>
  <text x="755" y="124" text-anchor="middle" font-family="Arial,sans-serif" font-size="12" fill="#fff">MySQL</text>
  <text x="755" y="140" text-anchor="middle" font-family="Arial,sans-serif" font-size="10" fill="#f6f8fa">jobs + state</text>

  <text x="60" y="200" font-family="Arial,sans-serif" font-size="11" font-weight="bold" fill="#57606a">ORCHESTRATION</text>
  <rect x="145" y="208" width="630" height="72" rx="10" fill="#fff" stroke="#d0d7de"/>
  <rect x="165" y="224" width="180" height="40" rx="6" fill="#ddf4ff" stroke="#0969da"/>
  <text x="255" y="242" text-anchor="middle" font-family="Arial,sans-serif" font-size="11" fill="#0969da">FastAPI webhook</text>
  <text x="255" y="256" text-anchor="middle" font-family="Arial,sans-serif" font-size="10" fill="#57606a">Telegram updates</text>
  <rect x="365" y="224" width="180" height="40" rx="6" fill="#fff8c5" stroke="#bf8700"/>
  <text x="455" y="242" text-anchor="middle" font-family="Arial,sans-serif" font-size="11" fill="#9a6700">APScheduler</text>
  <text x="455" y="256" text-anchor="middle" font-family="Arial,sans-serif" font-size="10" fill="#57606a">async pipeline</text>
  <rect x="565" y="224" width="190" height="40" rx="6" fill="#dafbe1" stroke="#1a7f37"/>
  <text x="660" y="242" text-anchor="middle" font-family="Arial,sans-serif" font-size="11" fill="#1a7f37">Workflow resume</text>
  <text x="660" y="256" text-anchor="middle" font-family="Arial,sans-serif" font-size="10" fill="#57606a">long-running jobs</text>

  <rect x="145" y="310" width="630" height="44" rx="8" fill="#f6f8fa" stroke="#d0d7de"/>
  <text x="460" y="338" text-anchor="middle" font-family="Arial,sans-serif" font-size="11" fill="#57606a">Scales UGC content marketing without a video editor</text>

  <text x="460" y="382" text-anchor="middle" font-family="Arial,sans-serif" font-size="11" fill="#57606a">Photo + music in | ready clip out | Telegram</text>
</svg>
